<svg width="14" height="14" viewBox="0 0 14 14" fill="none" xmlns="http://www.w3.org/2000/svg">
<path fill-rule="evenodd" clip-rule="evenodd" d="M4 3C4 2.26017 4.27328 1.54852 4.76393 1C4.80095 0.958611 4.83921 0.918152 4.87868 0.878679C5.44129 0.31607 6.20435 0 7 0C7.79565 0 8.55871 0.316071 9.12132 0.87868C9.16079 0.918152 9.19905 0.958612 9.23607 1C9.72672 1.54852 10 2.26017 10 3H13C13.5523 3 14 3.44772 14 4C14 4.55228 13.5523 5 13 5H12V11C12 12.6569 10.6569 14 9 14H5C3.34315 14 2 12.6569 2 11V5H1C0.447715 5 0 4.55228 0 4C0 3.44772 0.447715 3 1 3L4 3ZM5.6363 3L8.3637 3C8.3637 2.63833 8.22002 2.29146 7.96428 2.03572C7.70854 1.77998 7.36167 1.6363 7 1.6363C6.63833 1.6363 6.29146 1.77998 6.03572 2.03572C5.77998 2.29146 5.6363 2.63833 5.6363 3ZM4 11V5H10V11C10 11.5523 9.55228 12 9 12H5C4.44772 12 4 11.5523 4 11Z" fill="#424656"/>
</svg>
