<svg width="14" height="15" viewBox="0 0 14 15" fill="none" xmlns="http://www.w3.org/2000/svg">
<path d="M0.437464 14.4997C0.380001 14.4999 0.323077 14.4886 0.270005 14.4666C0.216932 14.4446 0.168771 14.4122 0.128323 14.3714C0.0454962 14.2892 0 14.1789 0 14.0623C0 13.9456 0.0454962 13.8354 0.128323 13.7531L4.48779 9.39365L2.40255 7.30841C2.2403 7.14667 2.12326 6.94524 2.06308 6.72419C2.00291 6.50314 2.0017 6.27018 2.05958 6.04851C2.10253 5.88147 2.17821 5.72461 2.28224 5.58704C2.38627 5.44946 2.51658 5.33391 2.66561 5.24708L2.67786 5.24008C3.41013 4.81707 4.24058 4.59361 5.08624 4.59205C5.36155 4.59205 5.63803 4.61597 5.91042 4.66321L8.17182 1.10926C8.28962 0.922335 8.45305 0.768465 8.64672 0.662136C8.8404 0.555808 9.05795 0.500519 9.27889 0.501477C9.62945 0.501477 9.959 0.637966 10.2069 0.885278L13.6139 4.29224C13.7711 4.44776 13.886 4.64075 13.948 4.85302C14.0099 5.06528 14.0168 5.28983 13.9679 5.50548C13.9312 5.67391 13.8613 5.83336 13.7623 5.97455C13.6634 6.11574 13.5374 6.23585 13.3916 6.32791L9.8371 8.58989C10.0304 9.70624 9.82382 10.855 9.25381 11.8341C9.13877 12.0324 8.97349 12.1969 8.77462 12.311C8.57576 12.4251 8.35033 12.4847 8.12107 12.4839C7.9484 12.4842 7.77737 12.4504 7.61787 12.3842C7.45838 12.318 7.3136 12.2208 7.1919 12.0983L5.10549 10.0119L0.746605 14.372C0.706011 14.4126 0.65781 14.4447 0.604762 14.4667C0.551714 14.4886 0.494862 14.4998 0.437464 14.4997ZM5.08624 5.46698C4.39388 5.46698 3.70969 5.65246 3.10657 6.00302C3.05712 6.03191 3.0139 6.07036 2.97945 6.11613C2.945 6.16189 2.92001 6.21406 2.90592 6.26958C2.88636 6.34336 2.88663 6.421 2.9067 6.49464C2.92678 6.56828 2.96595 6.63532 3.02025 6.68896L7.81135 11.4801C7.89418 11.5629 8.00442 11.6084 8.12166 11.6084C8.1979 11.6087 8.27288 11.589 8.33904 11.5511C8.4052 11.5132 8.46019 11.4585 8.49846 11.3926C9.0107 10.5147 9.1629 9.47256 8.92309 8.4849C8.90176 8.39632 8.90862 8.30329 8.94271 8.2188C8.9768 8.13431 9.03642 8.06258 9.11324 8.0136L12.9221 5.59005C12.9707 5.55943 13.0127 5.51941 13.0457 5.47233C13.0786 5.42526 13.1019 5.37208 13.114 5.31591C13.1303 5.24407 13.1281 5.16926 13.1075 5.09853C13.0869 5.0278 13.0485 4.9635 12.9962 4.91169L9.58803 1.50356C9.54184 1.45702 9.48576 1.4215 9.42395 1.39962C9.36214 1.37774 9.29619 1.37007 9.23101 1.37719C9.16583 1.38431 9.10309 1.40603 9.04746 1.44073C8.99183 1.47543 8.94473 1.52223 8.90967 1.57764L6.48554 5.38649C6.43682 5.46357 6.36511 5.5234 6.28054 5.55752C6.19597 5.59164 6.10282 5.59832 6.01425 5.57664C5.71023 5.5041 5.39879 5.4673 5.08624 5.46698Z" fill="#929292"/>
</svg>
