<svg width="20" height="12" viewBox="0 0 20 12" fill="none" xmlns="http://www.w3.org/2000/svg">
<path d="M8.17749 1.83154L5.28213 1.83154C4.20079 1.83154 3.1542 2.25629 2.38673 3.03513C1.61925 3.81397 1.18322 4.85823 1.2007 5.9734C1.18317 7.08854 1.61937 8.13295 2.38673 8.91166C3.17158 9.70814 4.18323 10.133 5.26462 10.133H8.15999M11.8229 10.1684H14.7183C15.7996 10.1684 16.8462 9.74364 17.6137 8.9648C18.3811 8.18596 18.8172 7.14169 18.7997 6.02653C18.7997 4.92918 18.3636 3.88487 17.5962 3.10602C16.8287 2.32718 15.7997 1.88469 14.7183 1.88468H11.8229M5.64827 5.96125L14.3344 5.96125" stroke="#424656" stroke-width="2" stroke-linecap="round" stroke-linejoin="round"/>
</svg>
