<svg width="16" height="18" viewBox="0 0 16 18" fill="none" xmlns="http://www.w3.org/2000/svg">
<path d="M4.66659 3.33329H4.00008C3.06666 3.33329 2.5996 3.33329 2.24308 3.51495C1.92948 3.67474 1.6747 3.92952 1.51491 4.24312C1.33325 4.59964 1.33325 5.0667 1.33325 6.00012V6.66663M4.66659 3.33329H11.3333M4.66659 3.33329V1.66663M11.3333 3.33329H12.0001C12.9335 3.33329 13.3996 3.33329 13.7561 3.51495C14.0697 3.67474 14.3253 3.92952 14.4851 4.24312C14.6666 4.59929 14.6666 5.06579 14.6666 5.99738V6.66663M11.3333 3.33329V1.66663M1.33325 6.66663V14.0001C1.33325 14.9335 1.33325 15.4 1.51491 15.7565C1.6747 16.0701 1.92948 16.3254 2.24308 16.4851C2.59925 16.6666 3.06575 16.6666 3.99734 16.6666H12.0025C12.9341 16.6666 13.3999 16.6666 13.7561 16.4851C14.0697 16.3254 14.3253 16.0701 14.4851 15.7565C14.6666 15.4004 14.6666 14.9345 14.6666 14.0029V6.66663M1.33325 6.66663H14.6666M11.3333 13.3333H11.3349L11.3349 13.335L11.3333 13.3349V13.3333ZM7.99992 13.3333H8.00159L8.00155 13.335L7.99992 13.3349V13.3333ZM4.66659 13.3333H4.66825L4.66821 13.335L4.66659 13.3349V13.3333ZM11.3349 9.99996V10.0016L11.3333 10.0016V9.99996H11.3349ZM7.99992 9.99996H8.00159L8.00155 10.0016L7.99992 10.0016V9.99996ZM4.66659 9.99996H4.66825L4.66821 10.0016L4.66659 10.0016V9.99996Z" stroke="#CFCFCF" stroke-width="2" stroke-linecap="round" stroke-linejoin="round"/>
</svg>
