<svg width="24" height="24" viewBox="0 0 24 24" fill="none" xmlns="http://www.w3.org/2000/svg">
<g clip-path="url(#clip0_338_2317)">
<path d="M12.9261 1.19129C12.9781 1.22809 12.9781 1.22809 13.0312 1.26563C13.061 1.2863 13.0909 1.30696 13.1216 1.32825C13.6005 1.69645 13.7716 2.25248 13.9218 2.81251C13.9402 2.88022 13.9402 2.88022 13.9591 2.94931C14.0239 3.18834 14.0877 3.42764 14.1498 3.66742C14.1601 3.70708 14.1703 3.74674 14.181 3.7876C14.203 3.89063 14.203 3.89063 14.203 4.03126C14.2436 4.03113 14.2842 4.031 14.3261 4.03086C15.3151 4.02775 16.3042 4.02543 17.2933 4.02397C17.7716 4.02324 18.25 4.02226 18.7283 4.02065C19.1453 4.01924 19.5624 4.01834 19.9794 4.01802C20.2001 4.01784 20.4208 4.01741 20.6415 4.01639C20.8495 4.01543 21.0576 4.01514 21.2656 4.01535C21.3416 4.01531 21.4177 4.01503 21.4938 4.01449C22.257 4.00932 22.8543 4.1341 23.422 4.66791C23.8961 5.1603 24.0284 5.70563 24.024 6.37459C24.0243 6.43957 24.0246 6.50455 24.025 6.56952C24.0259 6.74676 24.0256 6.92398 24.0251 7.10122C24.0248 7.29288 24.0255 7.48454 24.0262 7.6762C24.0272 8.05116 24.0272 8.42613 24.0268 8.80109C24.0265 9.106 24.0265 9.41091 24.0268 9.71581C24.0269 9.75928 24.0269 9.80275 24.027 9.84753C24.0271 9.93584 24.0271 10.0242 24.0272 10.1125C24.028 10.9399 24.0276 11.7673 24.0268 12.5947C24.0261 13.3508 24.0268 14.1069 24.0282 14.8631C24.0295 15.6404 24.0301 16.4178 24.0296 17.1951C24.0296 17.2831 24.0295 17.3711 24.0295 17.4592C24.0294 17.5024 24.0294 17.5457 24.0294 17.5904C24.0293 17.8947 24.0298 18.199 24.0304 18.5033C24.0313 18.8744 24.0313 19.2456 24.0302 19.6168C24.0297 19.806 24.0295 19.9952 24.0304 20.1844C24.0312 20.3579 24.0309 20.5315 24.0297 20.705C24.0294 20.7968 24.0302 20.8885 24.0311 20.9803C24.0242 21.632 23.7957 22.1242 23.3512 22.5905C22.905 23.0157 22.3338 23.1712 21.7316 23.1685C21.6673 23.1687 21.6673 23.1687 21.6018 23.169C21.459 23.1695 21.3163 23.1693 21.1735 23.1691C21.0709 23.1693 20.9682 23.1696 20.8655 23.1699C20.5872 23.1705 20.3089 23.1705 20.0305 23.1704C19.7979 23.1703 19.5653 23.1706 19.3326 23.1708C18.7523 23.1713 18.172 23.1713 17.5916 23.171C17.0885 23.1708 16.5854 23.1713 16.0823 23.1722C15.5649 23.1731 15.0474 23.1735 14.5299 23.1733C14.2397 23.1732 13.9496 23.1733 13.6594 23.174C13.3864 23.1746 13.1135 23.1745 12.8405 23.1739C12.7405 23.1738 12.6406 23.1739 12.5407 23.1743C11.9633 23.1764 11.4334 23.1752 10.9072 22.9043C10.8716 22.8865 10.836 22.8688 10.7993 22.8505C10.3693 22.5844 9.996 22.1204 9.86644 21.6257C9.84182 21.5066 9.8285 21.3897 9.81731 21.2686C9.81338 21.2269 9.80945 21.1853 9.80541 21.1423C9.80257 21.1108 9.79973 21.0793 9.7968 21.0469C9.75445 21.0579 9.7121 21.069 9.66847 21.0804C9.26915 21.1846 8.86982 21.2887 8.47047 21.3928C8.26517 21.4463 8.05987 21.4999 7.85459 21.5535C7.65644 21.6052 7.45827 21.6568 7.2601 21.7085C7.18453 21.7282 7.10897 21.7479 7.03342 21.7676C6.92751 21.7953 6.82158 21.8229 6.71565 21.8504C6.66892 21.8627 6.66892 21.8627 6.62124 21.8752C5.99583 22.0375 5.38838 22.0436 4.79875 21.7441C3.85669 21.1697 3.69162 20.219 3.43663 19.2239C3.41547 19.1417 3.39429 19.0596 3.37311 18.9775C3.32789 18.8021 3.28276 18.6267 3.2377 18.4513C3.16556 18.1704 3.09322 17.8896 3.02083 17.6089C2.99607 17.5128 2.9713 17.4167 2.94654 17.3206C2.93422 17.2729 2.9219 17.2251 2.90921 17.1758C2.87159 17.0298 2.83398 16.8838 2.79638 16.7378C2.57505 15.8784 2.35257 15.0193 2.12968 14.1603C2.08073 13.9716 2.0318 13.7829 1.98286 13.5943C1.92144 13.3574 1.86001 13.1206 1.79857 12.8837C1.63064 12.2364 1.46281 11.589 1.29501 10.9416C1.25023 10.7689 1.20545 10.5961 1.16067 10.4233C1.14589 10.3663 1.13111 10.3093 1.11588 10.2506C1.08605 10.1355 1.05622 10.0204 1.02638 9.90531C0.953246 9.62316 0.88011 9.34101 0.806979 9.05886C0.738005 8.79274 0.669023 8.52663 0.600036 8.26052C0.574695 8.16276 0.549357 8.06501 0.524023 7.96725C0.50024 7.87549 0.476447 7.78372 0.452644 7.69196C0.429745 7.60358 0.406901 7.51519 0.384117 7.42679C0.325065 7.19811 0.264679 6.96988 0.202391 6.74205C0.189457 6.69415 0.176523 6.64625 0.163197 6.5969C0.138688 6.50626 0.11382 6.41571 0.0885019 6.32529C-0.0850114 5.67945 -0.0999547 5.00301 0.234298 4.40626C0.663473 3.72812 1.26005 3.45508 2.01665 3.26423C2.07166 3.24994 2.12667 3.23565 2.18335 3.22093C2.33543 3.18152 2.48762 3.14255 2.63986 3.10374C2.80465 3.06163 2.9693 3.01895 3.13397 2.97634C3.42691 2.90061 3.71994 2.82523 4.01302 2.75004C4.53833 2.61527 5.06341 2.47962 5.58849 2.34394C5.77706 2.29522 5.96564 2.24651 6.15421 2.1978C6.22463 2.17961 6.22463 2.17961 6.29648 2.16105C6.62749 2.07556 6.95854 1.99019 7.2896 1.90487C8.38378 1.6229 9.47775 1.34022 10.5709 1.05419C10.6136 1.04304 10.6563 1.03189 10.7003 1.0204C10.777 1.00037 10.8537 0.980285 10.9304 0.960134C11.6337 0.776678 12.2998 0.781139 12.9261 1.19129ZM10.6166 2.26044C10.5352 2.28173 10.4539 2.30296 10.3726 2.32412C10.153 2.38143 9.93358 2.43956 9.71423 2.49784C9.48314 2.55908 9.25185 2.61953 9.02057 2.68004C8.73137 2.75574 8.44219 2.83152 8.15309 2.90763C7.47244 3.08679 6.79124 3.26371 6.1096 3.43909C6.01534 3.46336 5.92107 3.48763 5.82681 3.5119C5.50846 3.59384 5.19011 3.67575 4.87175 3.7576C4.38659 3.88234 3.90154 4.00745 3.41694 4.13436C3.20641 4.18948 2.99571 4.24388 2.78483 4.29766C2.62905 4.33762 2.47357 4.3787 2.31804 4.41962C2.26366 4.43325 2.20928 4.44688 2.15325 4.46093C1.77612 4.56192 1.44552 4.70005 1.24211 5.05079C1.05303 5.49634 1.22172 5.97393 1.34099 6.41712C1.35948 6.48756 1.37792 6.55802 1.39631 6.62849C1.43633 6.78142 1.47671 6.93424 1.51736 7.087C1.58355 7.33575 1.64893 7.58472 1.71418 7.83371C1.78506 8.10405 1.85601 8.37437 1.92721 8.64462C2.11167 9.34483 2.29427 10.0455 2.47588 10.7465C2.48937 10.7985 2.50286 10.8506 2.51676 10.9043C2.58561 11.1701 2.65444 11.4359 2.72325 11.7017C2.80672 12.0241 2.89031 12.3465 2.97392 12.6689C3.24273 13.7054 3.51118 14.7421 3.77885 15.7789C3.80365 15.875 3.82845 15.971 3.85325 16.067C4.04175 16.7972 4.04175 16.7972 4.13284 17.1506C4.1543 17.2339 4.17576 17.3172 4.19723 17.4004C4.21282 17.4609 4.21282 17.4609 4.22872 17.5226C4.30706 17.8264 4.38587 18.13 4.46489 18.4336C4.51935 18.6432 4.573 18.8529 4.62597 19.0629C4.65903 19.1935 4.69261 19.324 4.72629 19.4545C4.74876 19.5422 4.77057 19.6301 4.79235 19.718C4.88911 20.0902 4.99239 20.4035 5.30266 20.6455C5.82939 20.9318 6.44363 20.7071 6.98338 20.5622C7.06338 20.5412 7.14338 20.5203 7.2234 20.4995C7.38988 20.456 7.55623 20.412 7.7225 20.3677C7.93598 20.3107 8.14965 20.2546 8.36341 20.1987C8.56752 20.1453 8.77155 20.0916 8.97557 20.0378C9.01456 20.0275 9.05355 20.0173 9.09372 20.0067C9.20326 19.9778 9.31274 19.9487 9.4222 19.9195C9.4549 19.9109 9.4876 19.9023 9.52129 19.8935C9.67157 19.8617 9.67157 19.8617 9.7968 19.7813C9.80125 19.6686 9.80269 19.5573 9.80212 19.4446C9.80213 19.3918 9.80213 19.3918 9.80214 19.3379C9.80211 19.221 9.80174 19.1041 9.80138 18.9871C9.80129 18.9063 9.80122 18.8254 9.80118 18.7446C9.801 18.5313 9.80054 18.3181 9.80002 18.1049C9.79954 17.8874 9.79933 17.67 9.79909 17.4526C9.79859 17.0257 9.79778 16.5988 9.7968 16.1719C9.74437 16.1507 9.69194 16.1296 9.63792 16.1078C9.44656 16.0213 9.4087 15.9861 9.32805 15.7969C8.95985 14.7168 8.95985 14.7168 9.16106 14.2969C9.34577 14.1527 9.56367 14.1094 9.7968 14.1094C9.7968 13.9856 9.7968 13.8619 9.7968 13.7344C9.75813 13.7445 9.71946 13.7547 9.67961 13.7651C8.96375 13.9377 8.25701 13.9646 7.58543 13.6086C7.41335 13.5026 7.25848 13.3999 7.1165 13.2554C7.0399 13.161 7.0399 13.161 6.93742 13.1719C6.92473 13.1449 6.91205 13.1179 6.89897 13.09C6.84319 12.9835 6.77923 12.8914 6.70891 12.794C6.32338 12.2237 6.2337 11.5149 6.36009 10.8461C6.55512 10.1712 6.90577 9.61182 7.52922 9.26075C7.93677 9.05726 8.3067 8.94734 8.76555 8.94141C8.84821 8.9396 8.84821 8.9396 8.93254 8.93775C9.12073 8.94383 9.29809 8.984 9.48168 9.0244C9.54071 9.03732 9.59974 9.05023 9.66056 9.06353C9.728 9.07849 9.728 9.07849 9.7968 9.09375C9.79707 9.05566 9.79735 9.01756 9.79763 8.97831C9.80036 8.61701 9.80375 8.25573 9.80785 7.89444C9.80993 7.70876 9.81178 7.52308 9.81304 7.33738C9.81427 7.15775 9.81617 6.97813 9.81851 6.79851C9.81929 6.73042 9.81983 6.66233 9.82012 6.59423C9.8231 5.96983 9.88195 5.28591 10.3271 4.80469C10.3532 4.78149 10.3793 4.75829 10.4062 4.73438C10.4062 4.70344 10.4062 4.67251 10.4062 4.64063C10.4465 4.62169 10.4465 4.62169 10.4877 4.60236C10.5961 4.54563 10.6905 4.48036 10.79 4.40919C11.1547 4.16285 11.546 4.07723 11.9818 4.0633C12.0403 4.06134 12.0987 4.05937 12.159 4.05735C12.2196 4.05551 12.2802 4.05366 12.3427 4.05176C12.4042 4.04974 12.4658 4.04771 12.5292 4.04563C12.6809 4.04066 12.8326 4.03588 12.9843 4.03126C12.9319 3.80113 12.8781 3.57141 12.8226 3.34202C12.8064 3.27419 12.7904 3.20628 12.7748 3.13827C12.6694 2.6806 12.5342 2.39146 12.1552 2.10938C11.6398 1.95379 11.1178 2.12582 10.6166 2.26044ZM11.3027 5.47559C11.2776 5.49716 11.2526 5.51873 11.2269 5.54096C10.9736 5.84212 10.9955 6.14611 10.9971 6.52125C10.9968 6.58464 10.9965 6.64804 10.9962 6.71143C10.9954 6.88537 10.9955 7.05931 10.9958 7.23325C10.9959 7.42095 10.9952 7.60864 10.9947 7.79634C10.9937 8.16396 10.9935 8.53157 10.9935 8.89919C10.9936 9.19801 10.9934 9.49682 10.9931 9.79564C10.993 9.88171 10.9929 9.96778 10.9928 10.0538C10.9927 10.0967 10.9927 10.1395 10.9926 10.1837C10.9918 10.9939 10.9918 11.8041 10.9921 12.6143C10.9924 13.3555 10.9914 14.0966 10.9899 14.8378C10.9883 15.5989 10.9876 16.36 10.9878 17.121C10.9879 17.5483 10.9876 17.9756 10.9865 18.4028C10.9855 18.7666 10.9853 19.1303 10.9862 19.494C10.9866 19.6796 10.9867 19.8651 10.9857 20.0507C10.9848 20.2207 10.9851 20.3906 10.9861 20.5606C10.9864 20.651 10.9855 20.7414 10.9846 20.8317C10.9881 21.1669 11.0252 21.3993 11.2499 21.6563C11.586 21.9678 11.9216 21.9915 12.3616 21.9906C12.4022 21.9908 12.4427 21.9909 12.4845 21.991C12.6201 21.9913 12.7557 21.9912 12.8913 21.9912C12.9886 21.9913 13.0859 21.9915 13.1833 21.9917C13.4475 21.9921 13.7117 21.9922 13.9759 21.9922C14.141 21.9923 14.3061 21.9924 14.4712 21.9925C15.0473 21.9929 15.6233 21.9931 16.1994 21.9931C16.7363 21.993 17.2731 21.9935 17.81 21.9943C18.271 21.9949 18.7321 21.9951 19.1932 21.9951C19.4685 21.9951 19.7438 21.9952 20.0191 21.9957C20.278 21.9962 20.537 21.9962 20.7959 21.9958C20.8908 21.9958 20.9858 21.9959 21.0807 21.9962C21.2105 21.9965 21.3403 21.9963 21.4701 21.996C21.5262 21.9963 21.5262 21.9963 21.5834 21.9967C22.0045 21.9941 22.328 21.9011 22.6405 21.6094C22.8036 21.3885 22.8339 21.1982 22.8342 20.9282C22.8344 20.8751 22.8346 20.822 22.8348 20.7673C22.8347 20.709 22.8347 20.6507 22.8346 20.5906C22.8348 20.528 22.8349 20.4654 22.8351 20.4029C22.8354 20.2308 22.8355 20.0587 22.8356 19.8866C22.8356 19.701 22.836 19.5154 22.8363 19.3299C22.8369 18.9241 22.8372 18.5183 22.8374 18.1125C22.8376 17.8592 22.8378 17.6058 22.838 17.3525C22.8385 16.6512 22.839 15.9498 22.8392 15.2485C22.8392 15.2036 22.8392 15.1587 22.8392 15.1125C22.8392 15.0675 22.8392 15.0225 22.8392 14.9761C22.8393 14.8849 22.8393 14.7938 22.8393 14.7026C22.8393 14.6574 22.8393 14.6121 22.8393 14.5655C22.8395 13.8325 22.8403 13.0995 22.8414 12.3665C22.8426 11.6141 22.8431 10.8616 22.8432 10.1092C22.8432 9.68667 22.8435 9.26415 22.8444 8.84163C22.8451 8.48188 22.8453 8.12214 22.8449 7.76239C22.8447 7.57883 22.8448 7.39529 22.8454 7.21173C22.846 7.04365 22.846 6.87558 22.8454 6.70749C22.8453 6.61799 22.8458 6.52849 22.8464 6.43899C22.8441 6.03267 22.7939 5.73961 22.4999 5.43751C22.1825 5.20758 21.8611 5.19614 21.4805 5.19655C21.4195 5.19634 21.4195 5.19634 21.3571 5.19613C21.221 5.19572 21.0849 5.19565 20.9488 5.19558C20.8511 5.19536 20.7533 5.19512 20.6556 5.19487C20.3903 5.19426 20.1251 5.19395 19.8598 5.19375C19.694 5.19361 19.5282 5.19342 19.3624 5.19321C18.8435 5.19257 18.3246 5.19211 17.8057 5.19193C17.207 5.19172 16.6083 5.1909 16.0096 5.18954C15.5466 5.18853 15.0836 5.18806 14.6206 5.18799C14.3441 5.18794 14.0677 5.18767 13.7912 5.18683C13.5312 5.18606 13.2712 5.18596 13.0111 5.18637C12.9158 5.1864 12.8205 5.1862 12.7252 5.18574C12.5948 5.18514 12.4645 5.18542 12.3341 5.1859C12.2779 5.18534 12.2779 5.18534 12.2206 5.18476C11.8967 5.18758 11.5504 5.25192 11.3027 5.47559ZM7.81505 10.5002C7.58134 10.771 7.47369 11.0436 7.4384 11.3965C7.46914 11.7777 7.60657 12.1114 7.87291 12.388C8.17089 12.6393 8.51559 12.7701 8.90617 12.75C9.26156 12.6933 9.54283 12.5352 9.7968 12.2813C9.81277 12.0384 9.81553 11.7955 9.81836 11.5522C9.81961 11.4703 9.82152 11.3884 9.82413 11.3065C9.82785 11.1884 9.82939 11.0703 9.83049 10.9521C9.83204 10.9158 9.83358 10.8794 9.83518 10.842C9.8346 10.6845 9.82931 10.5862 9.72682 10.4622C9.14192 9.94956 8.37752 9.96312 7.81505 10.5002Z" fill="#B9B9B9"/>
<path d="M17.0625 8.57813C17.2844 8.66761 17.3863 8.74939 17.5048 8.95606C17.5358 9.00929 17.5668 9.06252 17.5988 9.11737C17.6168 9.14922 17.6349 9.18107 17.6535 9.21389C17.7332 9.3536 17.8145 9.49235 17.8958 9.63117C17.9599 9.74104 18.0239 9.85098 18.0878 9.96094C18.1036 9.98802 18.1194 10.0151 18.1357 10.043C18.1813 10.1215 18.2267 10.2002 18.272 10.2788C18.2986 10.3248 18.3252 10.3707 18.3526 10.4181C18.4166 10.5372 18.4665 10.6555 18.5156 10.7813C18.5449 10.7808 18.5742 10.7804 18.6044 10.78C18.9101 10.7758 19.2158 10.773 19.5215 10.771C19.6355 10.77 19.7496 10.7687 19.8636 10.7671C20.0277 10.7648 20.1917 10.7638 20.3558 10.7629C20.4066 10.762 20.4575 10.761 20.5098 10.76C20.7983 10.7599 20.9687 10.7745 21.1875 10.9688C21.32 11.1278 21.3489 11.2626 21.3454 11.4688C21.3102 11.6907 21.1878 11.8756 21.0761 12.0674C21.0382 12.1347 21.0382 12.1347 20.9995 12.2033C20.8185 12.5229 20.6333 12.8404 20.4432 13.1547C20.3003 13.3876 20.3003 13.3876 20.2031 13.6406C20.2426 13.7622 20.2426 13.7622 20.321 13.8799C20.3485 13.9257 20.3761 13.9714 20.4045 14.0185C20.4347 14.0668 20.4649 14.1152 20.496 14.165C20.557 14.2663 20.6179 14.3675 20.6788 14.4688C20.7093 14.5189 20.7398 14.569 20.7712 14.6207C20.8948 14.8239 21.0161 15.0282 21.1347 15.2344C21.1545 15.2671 21.1743 15.2998 21.1946 15.3335C21.3255 15.562 21.3521 15.7211 21.3281 15.9844C21.2507 16.1584 21.161 16.2587 21 16.3594C20.8615 16.4055 20.7725 16.4119 20.6282 16.4116C20.5813 16.4116 20.5344 16.4116 20.4861 16.4116C20.4355 16.4113 20.385 16.4111 20.3329 16.4108C20.2811 16.4108 20.2293 16.4107 20.1759 16.4106C20.0101 16.4104 19.8444 16.4098 19.6787 16.4092C19.5664 16.4089 19.4541 16.4087 19.3418 16.4085C19.0664 16.408 18.791 16.4072 18.5156 16.4063C18.5016 16.4421 18.4877 16.4779 18.4733 16.5148C18.4132 16.6617 18.3389 16.7946 18.2601 16.9325C18.2444 16.9601 18.2287 16.9877 18.2125 17.0161C18.1792 17.0743 18.1458 17.1326 18.1123 17.1907C18.0623 17.2779 18.0125 17.3653 17.9627 17.4527C17.4096 18.4207 17.4096 18.4207 17.2031 18.5713C16.9699 18.6345 16.8101 18.6517 16.5947 18.5314C16.4426 18.4138 16.3689 18.314 16.2729 18.1485C16.2573 18.122 16.2418 18.0956 16.2257 18.0683C16.1759 17.9834 16.127 17.898 16.0781 17.8125C16.0447 17.7554 16.0114 17.6984 15.9779 17.6414C15.8942 17.4984 15.8116 17.3548 15.7294 17.2109C15.6786 17.1222 15.6275 17.0336 15.5764 16.945C15.5439 16.8883 15.5114 16.8316 15.479 16.7748C15.4499 16.7242 15.4209 16.6736 15.391 16.6215C15.3281 16.5 15.3281 16.5 15.3281 16.4063C15.2986 16.4066 15.2692 16.4069 15.2389 16.4072C14.9325 16.4103 14.626 16.4124 14.3196 16.414C14.2052 16.4147 14.0909 16.4156 13.9765 16.4169C13.8121 16.4186 13.6477 16.4194 13.4833 16.42C13.4322 16.4207 13.3811 16.4214 13.3285 16.4222C13.0054 16.4223 12.8392 16.3871 12.5947 16.1689C12.4782 15.9661 12.4812 15.7917 12.5156 15.5625C12.5885 15.3777 12.6873 15.213 12.791 15.0439C12.832 14.9739 12.832 14.9739 12.8739 14.9025C13.0036 14.6823 13.137 14.4645 13.2714 14.2471C13.2933 14.2112 13.3152 14.1753 13.3377 14.1383C13.3784 14.072 13.4198 14.0061 13.462 13.9408C13.5466 13.8036 13.5958 13.7155 13.5835 13.5523C13.5451 13.3995 13.4927 13.2905 13.4119 13.1558C13.3843 13.1092 13.3567 13.0627 13.3283 13.0148C13.2989 12.9661 13.2695 12.9174 13.2392 12.8672C13.2096 12.817 13.1799 12.7667 13.1494 12.715C13.0231 12.5012 12.8957 12.2883 12.7637 12.078C12.5756 11.7743 12.4345 11.5208 12.5156 11.1563C12.5766 10.997 12.6276 10.9412 12.7679 10.8464C13.0095 10.7536 13.2314 10.7639 13.4879 10.7675C13.5669 10.7678 13.5669 10.7678 13.6475 10.7681C13.8151 10.7689 13.9827 10.7707 14.1503 10.7725C14.2642 10.7732 14.3781 10.7738 14.492 10.7744C14.7707 10.7759 15.0494 10.7783 15.3281 10.7813C15.3407 10.74 15.3533 10.6988 15.3662 10.6564C15.4192 10.5074 15.4813 10.3838 15.5614 10.2479C15.5888 10.2011 15.6162 10.1543 15.6444 10.1061C15.6734 10.0572 15.7025 10.0084 15.7324 9.95801C15.762 9.90787 15.7916 9.85773 15.8222 9.80608C15.8809 9.70695 15.9397 9.6079 15.9987 9.50892C16.0649 9.39717 16.1302 9.28498 16.1949 9.1723C16.226 9.11931 16.257 9.06632 16.289 9.01172C16.3146 8.96749 16.3403 8.92326 16.3667 8.87769C16.5576 8.63013 16.754 8.53957 17.0625 8.57813ZM16.875 10.4063C16.8535 10.445 16.832 10.4838 16.8098 10.5238C16.7294 10.6683 16.6485 10.8126 16.5674 10.9567C16.5324 11.019 16.4977 11.0814 16.4631 11.1438C16.4131 11.2339 16.3626 11.3237 16.3119 11.4133C16.2666 11.4943 16.2666 11.4943 16.2204 11.577C16.1074 11.7448 15.9949 11.8648 15.8045 11.9405C15.652 11.9595 15.4998 11.9643 15.3464 11.968C15.3123 11.9689 15.2782 11.9699 15.2431 11.9709C15.1347 11.974 15.0263 11.9767 14.9179 11.9795C14.8443 11.9815 14.7706 11.9836 14.6969 11.9856C14.5167 11.9906 14.3364 11.9954 14.1562 12C14.4039 12.507 14.4039 12.507 14.6894 12.9932C14.8564 13.2546 14.9596 13.4651 14.9062 13.7813C14.8294 13.9628 14.7257 14.1277 14.625 14.2969C14.5401 14.4468 14.4566 14.5974 14.373 14.748C14.3518 14.7859 14.3305 14.8237 14.3087 14.8626C14.2791 14.9156 14.2791 14.9156 14.2489 14.9696C14.231 15.0014 14.2132 15.0332 14.1948 15.066C14.1526 15.1336 14.1526 15.1336 14.1562 15.1875C14.2013 15.1882 14.2465 15.1889 14.293 15.1896C14.4617 15.1923 14.6304 15.1959 14.7991 15.1998C14.8719 15.2014 14.9446 15.2027 15.0174 15.2037C15.1225 15.2053 15.2276 15.2078 15.3327 15.2104C15.3648 15.2107 15.3969 15.211 15.4301 15.2113C15.6931 15.2192 15.9275 15.2654 16.1143 15.4628C16.1339 15.4956 16.1535 15.5285 16.1737 15.5623C16.1964 15.5996 16.2191 15.6369 16.2426 15.6753C16.2772 15.7355 16.2772 15.7355 16.3125 15.7969C16.3371 15.8386 16.3617 15.8804 16.3871 15.9234C16.463 16.0535 16.5373 16.1843 16.6113 16.3154C16.6368 16.3605 16.6624 16.4055 16.6887 16.4519C16.7509 16.5616 16.813 16.6714 16.875 16.7812C17.0223 16.6453 17.1188 16.5108 17.2161 16.3359C17.244 16.2866 17.272 16.2373 17.3008 16.1865C17.3586 16.0831 17.4164 15.9796 17.474 15.876C17.502 15.8267 17.53 15.7774 17.5589 15.7266C17.5839 15.6816 17.609 15.6367 17.6348 15.5903C17.7432 15.4332 17.8597 15.3184 18.0392 15.247C18.1916 15.228 18.3439 15.2232 18.4973 15.2195C18.5313 15.2186 18.5654 15.2176 18.6005 15.2166C18.7089 15.2135 18.8173 15.2108 18.9257 15.208C18.9994 15.206 19.0731 15.2039 19.1467 15.2019C19.327 15.1969 19.5072 15.1921 19.6875 15.1875C19.5544 14.9403 19.421 14.6939 19.2762 14.4534C19.256 14.4191 19.2357 14.3848 19.2149 14.3495C19.1741 14.2806 19.1326 14.2121 19.0903 14.1441C18.9388 13.8831 18.8722 13.6595 18.9375 13.3594C19.0272 13.1471 19.1407 12.9529 19.2597 12.7559C19.3201 12.6525 19.3806 12.5491 19.441 12.4457C19.468 12.4005 19.495 12.3554 19.5228 12.3089C19.5821 12.2074 19.6365 12.1058 19.6875 12C19.6197 11.999 19.6197 11.999 19.5507 11.9979C19.3819 11.9952 19.2133 11.9916 19.0446 11.9877C18.9718 11.9861 18.899 11.9848 18.8262 11.9838C18.7211 11.9822 18.6161 11.9797 18.511 11.9771C18.4789 11.9768 18.4467 11.9765 18.4136 11.9762C18.1318 11.9678 17.9055 11.9099 17.7074 11.7025C17.625 11.5782 17.5497 11.4535 17.4783 11.3227C17.452 11.2752 17.4258 11.2278 17.3987 11.1789C17.3442 11.0793 17.2897 10.9797 17.2354 10.88C17.2092 10.8328 17.183 10.7855 17.156 10.7368C17.1324 10.6936 17.1088 10.6504 17.0845 10.6059C17.0177 10.4881 17.0177 10.4881 16.875 10.4063Z" fill="#B9B9B9"/>
<path d="M7.31261 13.7344C7.47818 13.7978 7.53218 13.8543 7.63487 13.9981C7.71716 14.2449 7.69387 14.4588 7.5877 14.6972C7.51936 14.8214 7.4467 14.9415 7.3712 15.0615C7.34655 15.1028 7.32189 15.144 7.29649 15.1865C7.01698 15.6421 7.01698 15.6421 6.74882 15.7366C6.52181 15.7631 6.38143 15.7459 6.18761 15.6094C6.02955 15.4305 5.9787 15.2966 5.98401 15.0577C6.01452 14.8594 6.11589 14.6989 6.2169 14.5283C6.2369 14.4925 6.2569 14.4567 6.27751 14.4198C6.55102 13.9426 6.73912 13.6855 7.31261 13.7344Z" fill="#B9B9B9"/>
<path d="M7.67581 6.6416C7.7152 6.63985 7.7546 6.6381 7.79519 6.63629C7.97428 6.6645 8.06627 6.7251 8.20315 6.84375C8.25941 6.96991 8.29807 7.07549 8.33206 7.20703C8.34574 7.25471 8.34574 7.25471 8.35971 7.30334C8.38704 7.39983 8.41251 7.49664 8.43753 7.59375C8.44635 7.62707 8.45518 7.66038 8.46428 7.69471C8.54054 7.98836 8.59225 8.21449 8.45803 8.49902C8.31597 8.65566 8.22067 8.71185 8.01565 8.76562C7.78101 8.75959 7.64256 8.71927 7.47201 8.55359C7.33186 8.37364 7.28034 8.17895 7.22756 7.95996C7.21778 7.92052 7.208 7.88108 7.19792 7.84045C7.0351 7.15001 7.0351 7.15001 7.17483 6.89264C7.32613 6.70037 7.43969 6.6484 7.67581 6.6416Z" fill="#B9B9B9"/>
<path d="M5.87982 11.7568C6.01139 11.8692 6.08621 11.9438 6.10943 12.1183C6.11214 12.3155 6.11337 12.4716 6.03216 12.6533C5.64168 12.953 4.98445 13.1111 4.49536 13.0917C4.31618 13.0645 4.21231 12.9794 4.08978 12.8525C3.98697 12.6726 3.97239 12.5272 4.01361 12.3252C4.10556 12.1287 4.21335 11.9959 4.41701 11.908C4.54144 11.8669 4.66627 11.8315 4.79291 11.7979C4.85644 11.7793 4.85644 11.7793 4.92126 11.7604C5.24997 11.6694 5.56774 11.5923 5.87982 11.7568Z" fill="#B9B9B9"/>
<path d="M5.46294 8.72415C5.58726 8.79162 5.70728 8.8636 5.82727 8.93848C5.86851 8.96274 5.90975 8.987 5.95224 9.01199C6.18461 9.15367 6.34658 9.26969 6.46887 9.51562C6.51016 9.69541 6.48539 9.85346 6.41028 10.0225C6.27763 10.1883 6.18623 10.2505 5.98254 10.3184C5.55697 10.3581 5.06642 9.96893 4.73395 9.7348C4.59905 9.62111 4.51091 9.53378 4.48145 9.35614C4.48532 8.93659 4.48532 8.93659 4.64075 8.76562C4.90561 8.57643 5.17298 8.59684 5.46294 8.72415Z" fill="#B9B9B9"/>
</g>
<defs>
<clipPath id="clip0_338_2317">
<rect width="24" height="24" fill="white"/>
</clipPath>
</defs>
</svg>
